<svg xmlns="http://www.w3.org/2000/svg" viewBox="0 0 1347.35 804.88"><defs><style>.cls-1{fill:#8257e5;}.cls-2{fill:#04d361;}</style></defs><g id="Layer_2"><g id="Layer_1-2"><path class="cls-1" d="M134.48,460.48l246.24,230q20.19,18.78,15.16,29.34t-31.57,10.55H318.85a37.78,37.78,0,0,1-26.52-10.55L13.26,460.48q-26.52-24.63,0-49.27l279.07-259.3a37.75,37.75,0,0,1,26.52-10.56h45.46q26.52,0,31.57,10.56t-15.16,29.33l-246.24,230Q108,435.84,134.48,460.48Z"/><path class="cls-2" d="M810.49,1.57,838.6,8.35Q855.71,12.48,863,23.92t2.79,27.34l-203,726.83q-4.46,15.92-16.76,22.62t-29.43,2.6l-28.11-6.78Q571.27,792.41,564,781t-2.79-27.34l203-726.83q4.46-15.88,16.76-22.62T810.49,1.57Z"/><path class="cls-1" d="M984.31,141.35h44.19A37.73,37.73,0,0,1,1055,151.91l279.08,259.3q26.51,24.63,0,49.27L1055,719.79a37.76,37.76,0,0,1-26.52,10.55H984.31q-27.79,0-32.84-10.55t15.16-29.34l247.5-230q26.52-24.63,0-49.27l-247.5-230q-20.22-18.75-15.16-29.33T984.31,141.35Z"/></g></g></svg>
