<svg xmlns="http://www.w3.org/2000/svg" viewBox="0 0 1792.99 638.34"><defs><style>.cls-1{fill:#8257e5;}.cls-2{fill:#04d361;}</style></defs><g id="Layer_2"><g id="Layer_1-2"><path class="cls-1" d="M584.35,148.33V440.61q0,9.27-5.23,14.55c-3.49,3.54-8.28,5.29-14.38,5.29H549.06c-6.1,0-10.89-1.75-14.37-5.29s-5.23-8.37-5.23-14.55v-5.95q0-21.81-15.91-6a156.66,156.66,0,0,1-31.17,23.81q-29.19,15.87-67.64,15.87-36.48,0-67-13.89Q315.93,440,293.39,416.81a165.88,165.88,0,0,1-36.55-55.55,169.89,169.89,0,0,1-13.71-68.11,177.88,177.88,0,0,1,13.71-68.77,166.18,166.18,0,0,1,36.55-55.55q22.53-23.13,54.38-37.69,30.5-13.89,67-13.89,38.44,0,67.64,15.87a169.16,169.16,0,0,1,17.24,11.25,142.47,142.47,0,0,1,15.25,13.22q14.58,16.54,14.59-5.29v-4q0-9.26,5.23-14.54t14.37-5.3h15.68q9.15,0,14.38,5.3T584.35,148.33ZM414.73,412.18a116.17,116.17,0,0,0,45.76-9.26,97.65,97.65,0,0,0,35.81-25.79,128.9,128.9,0,0,0,24.54-37.69,128.6,128.6,0,0,0,0-92.58,113.67,113.67,0,0,0-11-20.5,210,210,0,0,0-13.59-17.85,109.38,109.38,0,0,0-35.81-25.79,116.34,116.34,0,0,0-45.76-9.26,113.59,113.59,0,0,0-82.23,35,131,131,0,0,0-25.2,38.35,120,120,0,0,0,0,92.58,112.94,112.94,0,0,0,25.2,37.69,113.59,113.59,0,0,0,82.23,35.05Z"/><path class="cls-1" d="M965.24,128.49h15.2q9.25,0,14.55,5.3t5.29,14.54V463.1a178.69,178.69,0,0,1-13.22,68.11,197.78,197.78,0,0,1-37,55.55q-22.5,23.13-54.23,37.69a166.39,166.39,0,0,1-67.45,13.89,169.94,169.94,0,0,1-45-6,179.79,179.79,0,0,1-42.33-16.53,202,202,0,0,1-36.37-25.79,67.8,67.8,0,0,1-9.25-8.26q-4-4.32-7.94-8.93-5.29-7.29-3.64-14.55t9.59-11.9l13.89-8.6q7.93-4.64,15.54-3a22.24,22.24,0,0,1,12.89,8.26,107.77,107.77,0,0,0,33.07,24.47,129.07,129.07,0,0,0,59.51,14.55,113.11,113.11,0,0,0,82.66-35,113.09,113.09,0,0,0,25.13-37.69,120.54,120.54,0,0,0,9.26-46.29V436q0-23.14-17.2-6-7.28,6.63-14.54,12.24a115.74,115.74,0,0,1-15.87,10.25Q868.68,468.39,831,468.39q-36.37,0-66.79-13.89-32.41-13.89-54.89-37.69A180.54,180.54,0,0,1,673,361.26a168.15,168.15,0,0,1-13.88-68.11A176.05,176.05,0,0,1,673,224.38a180.77,180.77,0,0,1,36.37-55.55Q731.8,145,764.21,131.14q30.4-13.89,66.79-13.89,37.69,0,66.79,15.87a142.24,142.24,0,0,1,32.4,25.13q15.19,15.23,15.21-5.95v-4c0-6.17,1.75-11,5.29-14.54S959.06,128.49,965.24,128.49ZM831,412.18a113.9,113.9,0,0,0,45-9.26,99.11,99.11,0,0,0,36.37-25.79,128.66,128.66,0,0,0,24.47-37.69,128.88,128.88,0,0,0,0-92.58,114.19,114.19,0,0,0-10.91-20.5,211.71,211.71,0,0,0-13.56-17.85A99.35,99.35,0,0,0,876,182.72a114.07,114.07,0,0,0-45-9.26,115.72,115.72,0,0,0-45.63,9.26,114.46,114.46,0,0,0-37,25.79,130.57,130.57,0,0,0-25.13,38.35,120.33,120.33,0,0,0,0,92.58,112.59,112.59,0,0,0,25.13,37.69,114.15,114.15,0,0,0,37,25.79A115.54,115.54,0,0,0,831,412.18Z"/><path class="cls-2" d="M1184.13.55l14.92,3c6,1.2,10.45,3.89,13.23,8s3.55,9.26,2.34,15.3l-82.83,415q-1.82,9.09-8,13.23c-4.16,2.78-9.25,3.55-15.3,2.35l-14.92-3q-9.09-1.82-13.23-8t-2.34-15.3l82.83-415q1.82-9.08,8-13.23T1184.13.55Z"/><path class="cls-1" d="M1571.61,155.61l-114.4,292.28q-4.64,12.57-17.86,12.56h-37q-13.87,0-18.51-12.56L1270.07,155.61q-5.31-12.56,0-19.84t18.51-7.28h16.54q13.88,0,18.51,12.57l78.69,205q8.6,22.5,18.52,22.49t18.51-22.49l78-205q4.62-12.56,18.52-12.57h17.19q13.23,0,18.52,7.28T1571.61,155.61Z"/><path class="cls-1" d="M57.31,307,162.24,412.46q8.59,8.61,6.45,13.45t-13.45,4.85H135.87a15.5,15.5,0,0,1-11.3-4.85L5.65,307q-11.29-11.3,0-22.6L124.57,165.47a15.49,15.49,0,0,1,11.3-4.84h19.37q11.31,0,13.45,4.84t-6.45,13.45L57.31,284.39Q46,295.69,57.31,307Z"/><path class="cls-1" d="M1638.28,160.63h18.84a15.49,15.49,0,0,1,11.3,4.84l118.92,118.92q11.29,11.3,0,22.6L1668.42,425.91a15.5,15.5,0,0,1-11.3,4.85h-18.84q-11.83,0-14-4.85t6.46-13.45L1736.22,307q11.29-11.3,0-22.6L1630.75,178.92q-8.61-8.59-6.46-13.45T1638.28,160.63Z"/></g></g></svg>
